<svg id="Camada_1" data-name="Camada 1" xmlns="http://www.w3.org/2000/svg" viewBox="0 0 512 512"><defs><style>.cls-1{fill:#d9d9d9;}</style></defs><path class="cls-1" d="M104,224H24A24,24,0,0,0,0,248V488a24,24,0,0,0,24,24h80a24,24,0,0,0,24-24V248A24,24,0,0,0,104,224ZM64,472a24,24,0,1,1,24-24A24,24,0,0,1,64,472ZM384,81.45c0,42.42-26,66.21-33.28,94.55H452.45c33.39,0,59.39,27.75,59.55,58.1.08,17.94-7.55,37.25-19.44,49.19l-.11.11c9.84,23.34,8.24,56-9.31,79.47,8.68,25.9-.07,57.71-16.38,74.76,4.3,17.6,2.24,32.58-6.15,44.63C440.2,511.59,389.62,512,346.84,512H344c-48.28,0-87.8-17.6-119.56-31.73-16-7.1-36.82-15.88-52.65-16.17a12,12,0,0,1-11.78-12V238.33a12,12,0,0,1,3.56-8.52c39.61-39.15,56.65-80.59,89.11-113.11,14.81-14.84,20.19-37.24,25.4-58.91C282.52,39.29,291.82,0,312,0,336,0,384,8,384,81.45Z"/></svg>