<?xml version="1.0" encoding="utf-8"?>
<!-- Generator: Adobe Illustrator 25.0.1, SVG Export Plug-In . SVG Version: 6.00 Build 0)  -->
<svg version="1.1" xmlns="http://www.w3.org/2000/svg" xmlns:xlink="http://www.w3.org/1999/xlink" x="0px" y="0px"
	 viewBox="0 0 338.44 129.12" style="enable-background:new 0 0 338.44 129.12;" xml:space="preserve">
<style type="text/css">
	.st0{opacity:0.4;}
	.st1{clip-path:url(#SVGID_2_);}
	.st2{opacity:0.5;}
	.st3{clip-path:url(#SVGID_6_);}
	.st4{fill:#5A5A5A;}
	.st5{clip-path:url(#SVGID_10_);}
	.st6{clip-path:url(#SVGID_14_);fill:url(#SVGID_15_);}
	.st7{clip-path:url(#SVGID_17_);}
	.st8{clip-path:url(#SVGID_21_);fill:url(#SVGID_22_);}
	.st9{clip-path:url(#SVGID_24_);}
	.st10{clip-path:url(#SVGID_28_);fill:url(#SVGID_29_);}
	.st11{clip-path:url(#SVGID_31_);}
	.st12{clip-path:url(#SVGID_35_);fill:url(#SVGID_36_);}
	.st13{clip-path:url(#SVGID_38_);}
	.st14{clip-path:url(#SVGID_42_);fill:url(#SVGID_43_);}
	.st15{clip-path:url(#SVGID_45_);}
	.st16{clip-path:url(#SVGID_49_);fill:url(#SVGID_50_);}
	.st17{clip-path:url(#SVGID_52_);}
	.st18{clip-path:url(#SVGID_56_);fill:url(#SVGID_57_);}
	.st19{clip-path:url(#SVGID_59_);}
	.st20{clip-path:url(#SVGID_63_);fill:url(#SVGID_64_);}
	.st21{clip-path:url(#SVGID_66_);}
	.st22{clip-path:url(#SVGID_70_);fill:url(#SVGID_71_);}
	.st23{clip-path:url(#SVGID_73_);}
	.st24{fill:#993333;}
	.st25{clip-path:url(#SVGID_77_);}
	.st26{fill:#8B8C8B;}
	.st27{fill:#4A4A49;}
	.st28{fill:#646363;}
</style>
<g id="Camada_1">
	<g>
		<g>
			<g class="st0">
				<g>
					<defs>
						<rect id="SVGID_1_" x="135.16" y="86.92" width="203.04" height="34.8"/>
					</defs>
					<clipPath id="SVGID_2_">
						<use xlink:href="#SVGID_1_"  style="overflow:visible;"/>
					</clipPath>
					<g class="st1">
						<defs>
							<rect id="SVGID_3_" x="135.16" y="86.92" width="203.04" height="34.8"/>
						</defs>
						<clipPath id="SVGID_4_">
							<use xlink:href="#SVGID_3_"  style="overflow:visible;"/>
						</clipPath>
						<g style="clip-path:url(#SVGID_4_);">
							
								<image style="overflow:visible;" width="846" height="145" xlink:href="A1007A31.png"  transform="matrix(0.24 0 0 0.24 135.16 86.9245)">
							</image>
						</g>
					</g>
				</g>
			</g>
		</g>
		<g class="st2">
			<g>
				<defs>
					<rect id="SVGID_5_" x="142.36" y="7" width="194.88" height="71.28"/>
				</defs>
				<clipPath id="SVGID_6_">
					<use xlink:href="#SVGID_5_"  style="overflow:visible;"/>
				</clipPath>
				<g class="st3">
					<defs>
						<rect id="SVGID_7_" x="142.36" y="7" width="194.88" height="71.28"/>
					</defs>
					<clipPath id="SVGID_8_">
						<use xlink:href="#SVGID_7_"  style="overflow:visible;"/>
					</clipPath>
					<g style="clip-path:url(#SVGID_8_);">
						
							<image style="overflow:visible;" width="812" height="297" xlink:href="A1007A33.png"  transform="matrix(0.24 0 0 0.24 142.36 7.0046)">
						</image>
					</g>
				</g>
			</g>
		</g>
		<path class="st4" d="M147.52,13.03v57.49c0,0.34,0.27,0.62,0.59,0.62h8.9c0.33,0,0.59-0.28,0.59-0.62V13.03
			c0-0.34-0.26-0.62-0.59-0.62h-8.9C147.78,12.41,147.52,12.69,147.52,13.03"/>
		<path class="st4" d="M164.18,13.05v9.01c0,0.34,0.26,0.62,0.59,0.62h29.12c0.48,0,0.76,0.56,0.49,0.97l-31.32,46.54
			c-0.28,0.41,0.01,0.97,0.49,0.97h49.28c0.33,0,0.59-0.28,0.59-0.62v-8.71c0-0.34-0.26-0.62-0.59-0.62h-31.17
			c-0.48,0-0.76-0.57-0.48-0.97l32.46-46.83c0.28-0.41,0-0.98-0.48-0.98l-48.37,0.02C164.44,12.43,164.18,12.71,164.18,13.05"/>
		<path class="st4" d="M220.15,13.05v9.01c0,0.34,0.27,0.62,0.59,0.62h29.11c0.48,0,0.76,0.56,0.49,0.97l-31.32,46.54
			c-0.27,0.41,0.01,0.97,0.49,0.97h49.28c0.33,0,0.59-0.28,0.59-0.62v-8.71c0-0.34-0.26-0.62-0.59-0.62h-31.17
			c-0.48,0-0.76-0.57-0.48-0.97l32.46-46.83c0.28-0.41,0-0.98-0.48-0.98l-48.37,0.02C220.42,12.43,220.15,12.71,220.15,13.05"/>
		<path class="st4" d="M300.75,71.14c-16.26,0-29.49-13.23-29.49-29.49c0-16.26,13.23-29.49,29.49-29.49
			c16.26,0,29.49,13.23,29.49,29.49C330.24,57.91,317.01,71.14,300.75,71.14 M300.75,23.35c-10.09,0-18.3,8.21-18.3,18.3
			c0,10.09,8.21,18.3,18.3,18.3c10.09,0,18.3-8.21,18.3-18.3C319.05,31.56,310.84,23.35,300.75,23.35"/>
		<g>
			<path class="st4" d="M145.41,90.76l6.38,10.58h-2.9l-1.32-2.33h-7l-1.32,2.33h-2.57l6.27-10.58H145.41z M146.53,97.13l-2.48-4.4
				l-2.5,4.4H146.53z"/>
			<g>
				<path class="st4" d="M165.78,90.76c0.68,0,1.29,0.05,1.81,0.14c0.52,0.09,0.98,0.21,1.36,0.35c0.38,0.14,0.71,0.3,0.98,0.48
					c0.27,0.18,0.49,0.34,0.67,0.49c0.17,0.15,0.34,0.33,0.51,0.55c0.18,0.22,0.34,0.48,0.49,0.8c0.15,0.32,0.28,0.68,0.38,1.08
					c0.1,0.4,0.15,0.86,0.15,1.38c0,0.83-0.12,1.55-0.38,2.14c-0.25,0.59-0.56,1.08-0.93,1.46c-0.4,0.42-0.87,0.74-1.4,0.97
					c-0.53,0.23-1.07,0.4-1.6,0.51c-0.53,0.11-1.04,0.17-1.52,0.2c-0.48,0.02-0.88,0.04-1.18,0.04h-6.48V90.76H165.78z
					 M165.06,99.33c0.32,0,0.65-0.02,1-0.05c0.35-0.03,0.69-0.09,1.02-0.17c0.33-0.08,0.65-0.2,0.95-0.35s0.55-0.34,0.75-0.58
					c0.18-0.22,0.35-0.51,0.49-0.88c0.14-0.37,0.21-0.84,0.21-1.42c0-0.55-0.07-1.03-0.22-1.45c-0.15-0.42-0.4-0.77-0.75-1.05
					c-0.4-0.33-0.84-0.54-1.32-0.62c-0.48-0.08-0.94-0.12-1.38-0.12h-4.6v6.7H165.06z"/>
				<polygon class="st4" points="176.16,90.76 179.08,90.76 183.56,98.43 187.78,90.76 190.46,90.76 184.33,101.33 182.56,101.33 
									"/>
				<path class="st4" d="M197.41,93.26c0-0.1,0-0.24,0.01-0.41c0.01-0.18,0.03-0.36,0.06-0.55c0.03-0.19,0.09-0.38,0.16-0.56
					c0.07-0.18,0.19-0.34,0.34-0.48c0.35-0.33,1.04-0.5,2.07-0.5h8.27c0.12,0,0.28,0.01,0.48,0.01c0.2,0.01,0.4,0.03,0.61,0.06
					s0.41,0.09,0.61,0.16c0.2,0.08,0.38,0.18,0.53,0.31c0.13,0.13,0.23,0.29,0.3,0.46c0.07,0.17,0.12,0.35,0.15,0.54
					c0.03,0.18,0.05,0.36,0.06,0.52c0.01,0.17,0.01,0.31,0.01,0.42v5.7c0,0.25-0.03,0.55-0.09,0.9c-0.06,0.35-0.2,0.65-0.44,0.9
					c-0.27,0.28-0.61,0.45-1.04,0.5c-0.43,0.05-0.82,0.08-1.19,0.08h-8.18c-0.52,0-0.97-0.04-1.35-0.12
					c-0.38-0.08-0.67-0.23-0.88-0.43c-0.13-0.13-0.23-0.29-0.3-0.47c-0.07-0.18-0.12-0.37-0.15-0.55c-0.03-0.18-0.05-0.36-0.06-0.52
					s-0.01-0.3-0.01-0.4V93.26z M208.53,92.76h-8.57v6.58h8.57V92.76z"/>
				<path class="st4" d="M231.66,98.83c0,0.33-0.03,0.69-0.09,1.06c-0.06,0.38-0.23,0.69-0.51,0.94c-0.17,0.15-0.42,0.27-0.75,0.36
					c-0.33,0.09-0.81,0.14-1.42,0.14h-6.6c-0.43,0-0.85-0.03-1.24-0.1c-0.39-0.07-0.7-0.21-0.94-0.43
					c-0.27-0.25-0.43-0.56-0.49-0.92c-0.06-0.37-0.09-0.72-0.09-1.05v-5.57c0-0.33,0.03-0.69,0.09-1.06
					c0.06-0.38,0.23-0.69,0.51-0.94c0.38-0.33,1.1-0.5,2.15-0.5h6.6c0.62,0,1.09,0.05,1.42,0.14c0.33,0.09,0.58,0.21,0.75,0.36
					c0.28,0.25,0.45,0.56,0.51,0.94c0.06,0.38,0.09,0.73,0.09,1.06v1.07l-2.55,0.38v-1.95h-7.02v6.57h7.02v-2.25l2.55,0.53V98.83z"
					/>
				<path class="st4" d="M247.28,90.76l6.38,10.58h-2.9l-1.32-2.33h-7l-1.33,2.33h-2.57l6.27-10.58H247.28z M248.41,97.13l-2.48-4.4
					l-2.5,4.4H248.41z"/>
				<path class="st4" d="M270.76,98.83c0,0.33-0.03,0.69-0.09,1.06c-0.06,0.38-0.23,0.69-0.51,0.94c-0.17,0.15-0.42,0.27-0.75,0.36
					c-0.33,0.09-0.81,0.14-1.42,0.14h-6.6c-0.43,0-0.85-0.03-1.24-0.1c-0.39-0.07-0.7-0.21-0.94-0.43
					c-0.27-0.25-0.43-0.56-0.49-0.92c-0.06-0.37-0.09-0.72-0.09-1.05v-5.57c0-0.33,0.03-0.69,0.09-1.06
					c0.06-0.38,0.23-0.69,0.51-0.94c0.38-0.33,1.1-0.5,2.15-0.5h6.6c0.62,0,1.09,0.05,1.42,0.14c0.33,0.09,0.58,0.21,0.75,0.36
					c0.28,0.25,0.45,0.56,0.51,0.94c0.06,0.38,0.09,0.73,0.09,1.06v1.07l-2.55,0.38v-1.95h-7.02v6.57h7.02v-2.25l2.55,0.53V98.83z"
					/>
				<rect x="279.23" y="90.76" class="st4" width="2.55" height="10.58"/>
				<path class="st4" d="M297.88,90.76l6.38,10.58h-2.9l-1.32-2.33h-7l-1.33,2.33h-2.57l6.27-10.58H297.88z M299.01,97.13l-2.48-4.4
					l-2.5,4.4H299.01z"/>
				<path class="st4" d="M150.13,115.81c0,0.33-0.03,0.69-0.09,1.06c-0.06,0.38-0.23,0.69-0.51,0.94c-0.17,0.15-0.42,0.27-0.75,0.36
					c-0.33,0.09-0.81,0.14-1.43,0.14h-6.6c-0.43,0-0.85-0.03-1.24-0.1c-0.39-0.07-0.7-0.21-0.94-0.43
					c-0.27-0.25-0.43-0.56-0.49-0.92c-0.06-0.37-0.09-0.72-0.09-1.05v-5.57c0-0.33,0.03-0.69,0.09-1.06
					c0.06-0.38,0.23-0.69,0.51-0.94c0.38-0.33,1.1-0.5,2.15-0.5h6.6c0.62,0,1.09,0.05,1.43,0.14c0.33,0.09,0.58,0.21,0.75,0.36
					c0.28,0.25,0.45,0.56,0.51,0.94c0.06,0.38,0.09,0.73,0.09,1.06v1.07l-2.55,0.38v-1.95h-7.03v6.57h7.03v-2.25l2.55,0.53V115.81z"
					/>
				<path class="st4" d="M156.83,110.23c0-0.1,0-0.24,0.01-0.41c0.01-0.17,0.03-0.36,0.06-0.55c0.03-0.19,0.09-0.38,0.16-0.56
					c0.08-0.18,0.19-0.34,0.34-0.48c0.35-0.33,1.04-0.5,2.07-0.5h8.28c0.12,0,0.27,0.01,0.47,0.01c0.2,0.01,0.4,0.03,0.61,0.06
					c0.21,0.03,0.41,0.09,0.61,0.16c0.2,0.08,0.38,0.18,0.52,0.31c0.13,0.13,0.23,0.29,0.3,0.46c0.07,0.18,0.12,0.36,0.15,0.54
					c0.03,0.18,0.05,0.36,0.06,0.53c0.01,0.17,0.01,0.31,0.01,0.42v5.7c0,0.25-0.03,0.55-0.09,0.9c-0.06,0.35-0.2,0.65-0.44,0.9
					c-0.27,0.29-0.61,0.45-1.04,0.5c-0.42,0.05-0.82,0.08-1.19,0.08h-8.18c-0.52,0-0.97-0.04-1.35-0.12
					c-0.38-0.08-0.68-0.23-0.88-0.43c-0.13-0.13-0.23-0.29-0.3-0.48c-0.07-0.18-0.12-0.37-0.15-0.55c-0.03-0.18-0.05-0.36-0.06-0.52
					c-0.01-0.17-0.01-0.3-0.01-0.4V110.23z M167.96,109.73h-8.57v6.58h8.57V109.73z"/>
				<polygon class="st4" points="188.41,114.76 188.41,107.74 190.76,107.74 190.76,118.31 188.98,118.31 180.03,111.19 
					180.03,118.31 177.68,118.31 177.68,107.74 179.46,107.74 				"/>
				<path class="st4" d="M200.73,109.61v2.28h6.9c1.1,0,1.82,0.17,2.17,0.5c0.28,0.25,0.45,0.56,0.5,0.94
					c0.05,0.38,0.08,0.73,0.08,1.06v1.42c0,0.33-0.02,0.68-0.08,1.05c-0.05,0.37-0.22,0.68-0.5,0.93c-0.23,0.22-0.55,0.36-0.94,0.43
					c-0.39,0.07-0.8,0.1-1.24,0.1h-6.93c-0.7,0-1.2-0.05-1.51-0.16c-0.31-0.11-0.53-0.22-0.66-0.34c-0.15-0.13-0.29-0.35-0.41-0.64
					c-0.12-0.29-0.19-0.69-0.19-1.19v-0.5l2.35-0.42v1.25h7.7v-2.42h-6.88c-0.7,0-1.2-0.05-1.51-0.16
					c-0.31-0.11-0.53-0.22-0.66-0.34c-0.18-0.17-0.33-0.41-0.44-0.73c-0.11-0.32-0.16-0.67-0.16-1.05v-1.47c0-0.1,0-0.23,0.01-0.39
					c0.01-0.16,0.03-0.33,0.07-0.51c0.04-0.18,0.1-0.36,0.18-0.54c0.07-0.17,0.19-0.33,0.34-0.46c0.25-0.23,0.58-0.38,0.99-0.42
					c0.41-0.05,0.8-0.08,1.19-0.08h6.6c0.58,0,1.03,0.06,1.33,0.19s0.52,0.25,0.65,0.39c0.23,0.23,0.38,0.51,0.44,0.84
					c0.06,0.32,0.09,0.62,0.09,0.89v0.23l-2.22,0.47v-1.12H200.73z"/>
				<path class="st4" d="M220.11,116.31h7.42v-8.57h2.55v8.17c0,0.57-0.07,0.99-0.2,1.27c-0.13,0.28-0.27,0.49-0.4,0.62
					c-0.17,0.15-0.42,0.27-0.75,0.36c-0.33,0.09-0.81,0.14-1.43,0.14h-7c-1.05,0-1.77-0.17-2.15-0.5c-0.28-0.25-0.45-0.57-0.51-0.95
					c-0.06-0.38-0.09-0.71-0.09-0.98v-8.15h2.55V116.31z"/>
				<polygon class="st4" points="240.06,116.31 248.41,116.31 248.41,118.31 237.51,118.31 237.51,107.74 240.06,107.74 				"/>
				<polygon class="st4" points="260.33,118.31 257.78,118.31 257.78,109.61 252.66,109.61 252.66,107.74 265.46,107.74 
					265.46,109.61 260.33,109.61 				"/>
				<path class="st4" d="M271.26,110.23c0-0.1,0-0.24,0.01-0.41c0.01-0.17,0.03-0.36,0.06-0.55c0.03-0.19,0.09-0.38,0.16-0.56
					c0.07-0.18,0.19-0.34,0.34-0.48c0.35-0.33,1.04-0.5,2.07-0.5h8.27c0.12,0,0.28,0.01,0.48,0.01c0.2,0.01,0.4,0.03,0.61,0.06
					c0.21,0.03,0.41,0.09,0.61,0.16c0.2,0.08,0.38,0.18,0.52,0.31c0.13,0.13,0.23,0.29,0.3,0.46c0.07,0.18,0.12,0.36,0.15,0.54
					c0.03,0.18,0.05,0.36,0.06,0.53c0.01,0.17,0.01,0.31,0.01,0.42v5.7c0,0.25-0.03,0.55-0.09,0.9c-0.06,0.35-0.2,0.65-0.44,0.9
					c-0.27,0.29-0.61,0.45-1.04,0.5c-0.43,0.05-0.82,0.08-1.19,0.08h-8.17c-0.52,0-0.97-0.04-1.35-0.12
					c-0.38-0.08-0.67-0.23-0.88-0.43c-0.13-0.13-0.23-0.29-0.3-0.48c-0.07-0.18-0.12-0.37-0.15-0.55c-0.03-0.18-0.05-0.36-0.06-0.52
					c-0.01-0.17-0.01-0.3-0.01-0.4V110.23z M282.38,109.73h-8.57v6.58h8.57V109.73z"/>
				<path class="st4" d="M301.63,107.73c0.53,0,0.94,0.05,1.22,0.14c0.28,0.09,0.49,0.2,0.62,0.31c0.28,0.23,0.46,0.5,0.53,0.8
					c0.07,0.3,0.1,0.57,0.1,0.8v2.55c0,0.23-0.03,0.5-0.1,0.81c-0.07,0.31-0.27,0.58-0.6,0.81c-0.23,0.15-0.52,0.25-0.85,0.31
					c-0.33,0.06-0.64,0.09-0.92,0.09h-1.4l4.98,3.95h-3.7l-4.38-3.95h-2.47v3.95h-2.55v-10.58H301.63z M294.66,109.61v2.88h5.88
					c0.28,0,0.49-0.02,0.62-0.06c0.13-0.04,0.22-0.08,0.27-0.11c0.13-0.08,0.21-0.19,0.24-0.31s0.04-0.25,0.04-0.36v-1.17
					c0-0.08-0.01-0.19-0.03-0.31c-0.02-0.12-0.09-0.24-0.22-0.34c-0.12-0.08-0.26-0.14-0.42-0.16c-0.17-0.03-0.32-0.04-0.45-0.04
					H294.66z"/>
				<rect x="311.08" y="107.74" class="st4" width="2.55" height="10.58"/>
				<path class="st4" d="M328.21,107.73l6.38,10.58h-2.9l-1.32-2.33h-7l-1.33,2.33h-2.57l6.27-10.58H328.21z M329.33,114.11
					l-2.48-4.4l-2.5,4.4H329.33z"/>
				<path class="st4" d="M318.25,101.33c-0.4,0-0.84-0.03-1.31-0.09c-0.47-0.06-0.88-0.24-1.21-0.54c-0.18-0.17-0.32-0.36-0.41-0.59
					c-0.09-0.23-0.16-0.45-0.2-0.67c-0.04-0.22-0.07-0.44-0.08-0.65c-0.01-0.21-0.01-0.38-0.01-0.51v-0.85
					c0-0.23,0.02-0.48,0.05-0.73s0.14-0.49,0.33-0.72c0.15-0.22,0.34-0.4,0.57-0.55c0.23-0.15,0.45-0.28,0.65-0.4l2.62-1.58
					c-0.23-0.18-0.47-0.44-0.72-0.76c-0.25-0.33-0.38-0.72-0.38-1.19v-0.73c0-0.27,0.03-0.57,0.1-0.9c0.07-0.33,0.25-0.62,0.55-0.88
					c0.13-0.1,0.37-0.22,0.71-0.36c0.34-0.14,0.9-0.21,1.66-0.21h3.15c0.27,0,0.61,0.02,1.04,0.08c0.42,0.05,0.78,0.19,1.06,0.42
					c0.33,0.27,0.54,0.6,0.61,1c0.08,0.4,0.11,0.77,0.11,1.1v0.77l-2.33,0.4v-1.72h-4.23v0.92l6.08,5.05l3-2.5l1.7,1.48l-2.97,2.48
					l4.07,3.42h-3.92l-2.12-1.8l-1.15,1.02c-0.17,0.13-0.35,0.26-0.55,0.39c-0.2,0.12-0.39,0.21-0.57,0.26
					c-0.18,0.05-0.41,0.08-0.69,0.1c-0.28,0.02-0.48,0.02-0.61,0.02H318.25z M323.53,99.08l1.2-1.02l-3.88-3.23l-3.32,2.05v2.2
					H323.53z"/>
				<g class="st2">
					<g>
						<defs>
							<rect id="SVGID_9_" x="134.68" y="73.24" width="203.76" height="14.16"/>
						</defs>
						<clipPath id="SVGID_10_">
							<use xlink:href="#SVGID_9_"  style="overflow:visible;"/>
						</clipPath>
						<g class="st5">
							<defs>
								<rect id="SVGID_11_" x="134.68" y="73.24" width="203.76" height="14.16"/>
							</defs>
							<clipPath id="SVGID_12_">
								<use xlink:href="#SVGID_11_"  style="overflow:visible;"/>
							</clipPath>
							<g style="clip-path:url(#SVGID_12_);">
								
									<image style="overflow:visible;" width="849" height="59" xlink:href="A1007A36.png"  transform="matrix(0.24 0 0 0.24 134.68 73.2446)">
								</image>
							</g>
						</g>
					</g>
				</g>
				<polygon class="st4" points="139.82,78.87 163.77,78.62 187.72,78.48 235.62,78.35 283.52,78.46 307.47,78.61 331.42,78.87 
					331.42,79.87 307.47,80.13 283.52,80.28 235.62,80.39 187.72,80.26 163.77,80.12 139.82,79.87 				"/>
			</g>
		</g>
	</g>
</g>
<g id="Camada_2">
	<g>
		<g>
			<defs>
				<polygon id="SVGID_13_" points="73.35,82.54 82.66,82.63 109.21,45.66 100.13,45.6 				"/>
			</defs>
			<clipPath id="SVGID_14_">
				<use xlink:href="#SVGID_13_"  style="overflow:visible;"/>
			</clipPath>
			
				<linearGradient id="SVGID_15_" gradientUnits="userSpaceOnUse" x1="-151.5763" y1="483.2133" x2="-150.5763" y2="483.2133" gradientTransform="matrix(20.6912 7.1349 7.1349 -20.6912 -230.4503 11140.2773)">
				<stop  offset="0" style="stop-color:#9D9D9C"/>
				<stop  offset="6.230030e-08" style="stop-color:#9D9D9C"/>
				<stop  offset="0.996" style="stop-color:#575756"/>
				<stop  offset="1" style="stop-color:#706F6F"/>
			</linearGradient>
			<polygon class="st6" points="77.16,34.54 120.63,49.53 105.4,93.68 61.93,78.7 			"/>
		</g>
		<g>
			<g class="st2">
				<g>
					<defs>
						<rect id="SVGID_16_" x="55.8" y="21.96" width="18.48" height="80.16"/>
					</defs>
					<clipPath id="SVGID_17_">
						<use xlink:href="#SVGID_16_"  style="overflow:visible;"/>
					</clipPath>
					<g class="st7">
						<defs>
							<rect id="SVGID_18_" x="55.8" y="21.96" width="18.48" height="80.16"/>
						</defs>
						<clipPath id="SVGID_19_">
							<use xlink:href="#SVGID_18_"  style="overflow:visible;"/>
						</clipPath>
						<g style="clip-path:url(#SVGID_19_);">
							
								<image style="overflow:visible;" width="77" height="334" xlink:href="A1007A37.png"  transform="matrix(0.24 0 0 0.24 55.8 21.96)">
							</image>
						</g>
					</g>
				</g>
			</g>
		</g>
		<g>
			<defs>
				<rect id="SVGID_20_" x="60.91" y="27.19" width="6.18" height="67.77"/>
			</defs>
			<clipPath id="SVGID_21_">
				<use xlink:href="#SVGID_20_"  style="overflow:visible;"/>
			</clipPath>
			
				<linearGradient id="SVGID_22_" gradientUnits="userSpaceOnUse" x1="-162.2302" y1="480.1505" x2="-161.2301" y2="480.1505" gradientTransform="matrix(6.1784 0 0 -6.1784 1063.2269 3027.6228)">
				<stop  offset="0" style="stop-color:#9D9D9C"/>
				<stop  offset="6.230030e-08" style="stop-color:#9D9D9C"/>
				<stop  offset="0.996" style="stop-color:#575756"/>
				<stop  offset="1" style="stop-color:#706F6F"/>
			</linearGradient>
			<rect x="60.91" y="27.19" class="st8" width="6.18" height="67.77"/>
		</g>
		<g>
			<g class="st2">
				<g>
					<defs>
						<rect id="SVGID_23_" x="37.32" y="21.96" width="55.44" height="17.76"/>
					</defs>
					<clipPath id="SVGID_24_">
						<use xlink:href="#SVGID_23_"  style="overflow:visible;"/>
					</clipPath>
					<g class="st9">
						<defs>
							<rect id="SVGID_25_" x="37.32" y="21.96" width="55.44" height="17.76"/>
						</defs>
						<clipPath id="SVGID_26_">
							<use xlink:href="#SVGID_25_"  style="overflow:visible;"/>
						</clipPath>
						<g style="clip-path:url(#SVGID_26_);">
							
								<image style="overflow:visible;" width="231" height="74" xlink:href="A1007A32.png"  transform="matrix(0.24 0 0 0.24 37.32 21.96)">
							</image>
						</g>
					</g>
				</g>
			</g>
		</g>
		<g>
			<defs>
				<rect id="SVGID_27_" x="42.37" y="27" width="43.25" height="5.61"/>
			</defs>
			<clipPath id="SVGID_28_">
				<use xlink:href="#SVGID_27_"  style="overflow:visible;"/>
			</clipPath>
			
				<linearGradient id="SVGID_29_" gradientUnits="userSpaceOnUse" x1="-149.7808" y1="484.8985" x2="-148.7808" y2="484.8985" gradientTransform="matrix(49.7776 15.8914 15.8914 -49.7776 -205.9902 26540.7129)">
				<stop  offset="0" style="stop-color:#9D9D9C"/>
				<stop  offset="6.230030e-08" style="stop-color:#9D9D9C"/>
				<stop  offset="0.996" style="stop-color:#575756"/>
				<stop  offset="1" style="stop-color:#706F6F"/>
			</linearGradient>
			<polygon class="st10" points="46.37,14.47 87.25,27.51 81.62,45.13 40.75,32.09 			"/>
		</g>
		<g>
			<g class="st2">
				<g>
					<defs>
						<rect id="SVGID_30_" x="37.32" y="89.88" width="55.44" height="18.48"/>
					</defs>
					<clipPath id="SVGID_31_">
						<use xlink:href="#SVGID_30_"  style="overflow:visible;"/>
					</clipPath>
					<g class="st11">
						<defs>
							<rect id="SVGID_32_" x="37.32" y="89.88" width="55.44" height="18.48"/>
						</defs>
						<clipPath id="SVGID_33_">
							<use xlink:href="#SVGID_32_"  style="overflow:visible;"/>
						</clipPath>
						<g style="clip-path:url(#SVGID_33_);">
							
								<image style="overflow:visible;" width="231" height="77" xlink:href="A1007A3D.png"  transform="matrix(0.24 0 0 0.24 37.32 89.88)">
							</image>
						</g>
					</g>
				</g>
			</g>
		</g>
		<g>
			<defs>
				<rect id="SVGID_34_" x="42.37" y="94.96" width="43.25" height="6.18"/>
			</defs>
			<clipPath id="SVGID_35_">
				<use xlink:href="#SVGID_34_"  style="overflow:visible;"/>
			</clipPath>
			
				<linearGradient id="SVGID_36_" gradientUnits="userSpaceOnUse" x1="-150.41" y1="485.2158" x2="-149.41" y2="485.2158" gradientTransform="matrix(43.2486 0 0 -43.2486 6547.4009 21082.9668)">
				<stop  offset="0" style="stop-color:#9D9D9C"/>
				<stop  offset="6.230030e-08" style="stop-color:#9D9D9C"/>
				<stop  offset="0.996" style="stop-color:#575756"/>
				<stop  offset="1" style="stop-color:#706F6F"/>
			</linearGradient>
			<rect x="42.37" y="94.96" class="st12" width="43.25" height="6.18"/>
		</g>
		<g>
			<g class="st2">
				<g>
					<defs>
						<rect id="SVGID_37_" x="13.56" y="34.2" width="48.24" height="18.48"/>
					</defs>
					<clipPath id="SVGID_38_">
						<use xlink:href="#SVGID_37_"  style="overflow:visible;"/>
					</clipPath>
					<g class="st13">
						<defs>
							<rect id="SVGID_39_" x="13.56" y="34.2" width="48.24" height="18.48"/>
						</defs>
						<clipPath id="SVGID_40_">
							<use xlink:href="#SVGID_39_"  style="overflow:visible;"/>
						</clipPath>
						<g style="clip-path:url(#SVGID_40_);">
							
								<image style="overflow:visible;" width="201" height="77" xlink:href="A1007A3E.png"  transform="matrix(0.24 0 0 0.24 13.56 34.2)">
							</image>
						</g>
					</g>
				</g>
			</g>
		</g>
		<g>
			<defs>
				<rect id="SVGID_41_" x="18.66" y="39.29" width="35.99" height="6.31"/>
			</defs>
			<clipPath id="SVGID_42_">
				<use xlink:href="#SVGID_41_"  style="overflow:visible;"/>
			</clipPath>
			
				<linearGradient id="SVGID_43_" gradientUnits="userSpaceOnUse" x1="-150.8074" y1="485.0455" x2="-149.8074" y2="485.0455" gradientTransform="matrix(35.9894 0 0 -35.9894 5446.1265 17498.9434)">
				<stop  offset="0" style="stop-color:#9D9D9C"/>
				<stop  offset="6.230030e-08" style="stop-color:#9D9D9C"/>
				<stop  offset="0.996" style="stop-color:#575756"/>
				<stop  offset="1" style="stop-color:#706F6F"/>
			</linearGradient>
			<rect x="18.66" y="39.29" class="st14" width="35.99" height="6.31"/>
		</g>
		<g>
			<g class="st2">
				<g>
					<defs>
						<rect id="SVGID_44_" x="13.56" y="77.4" width="48.24" height="18.48"/>
					</defs>
					<clipPath id="SVGID_45_">
						<use xlink:href="#SVGID_44_"  style="overflow:visible;"/>
					</clipPath>
					<g class="st15">
						<defs>
							<rect id="SVGID_46_" x="13.56" y="77.4" width="48.24" height="18.48"/>
						</defs>
						<clipPath id="SVGID_47_">
							<use xlink:href="#SVGID_46_"  style="overflow:visible;"/>
						</clipPath>
						<g style="clip-path:url(#SVGID_47_);">
							
								<image style="overflow:visible;" width="201" height="77" xlink:href="A1007A3F.png"  transform="matrix(0.24 0 0 0.24 13.56 77.4)">
							</image>
						</g>
					</g>
				</g>
			</g>
		</g>
		<g>
			<defs>
				<rect id="SVGID_48_" x="18.74" y="82.47" width="35.99" height="6.31"/>
			</defs>
			<clipPath id="SVGID_49_">
				<use xlink:href="#SVGID_48_"  style="overflow:visible;"/>
			</clipPath>
			
				<linearGradient id="SVGID_50_" gradientUnits="userSpaceOnUse" x1="-150.8074" y1="485.0455" x2="-149.8073" y2="485.0455" gradientTransform="matrix(35.9894 0 0 -35.9894 5446.2085 17542.125)">
				<stop  offset="0" style="stop-color:#9D9D9C"/>
				<stop  offset="6.230030e-08" style="stop-color:#9D9D9C"/>
				<stop  offset="0.996" style="stop-color:#575756"/>
				<stop  offset="1" style="stop-color:#706F6F"/>
			</linearGradient>
			<rect x="18.74" y="82.47" class="st16" width="35.99" height="6.31"/>
		</g>
		<g>
			<g class="st2">
				<g>
					<defs>
						<rect id="SVGID_51_" x="13.56" y="40.44" width="48.24" height="49.2"/>
					</defs>
					<clipPath id="SVGID_52_">
						<use xlink:href="#SVGID_51_"  style="overflow:visible;"/>
					</clipPath>
					<g class="st17">
						<defs>
							<rect id="SVGID_53_" x="13.56" y="40.44" width="48.24" height="49.2"/>
						</defs>
						<clipPath id="SVGID_54_">
							<use xlink:href="#SVGID_53_"  style="overflow:visible;"/>
						</clipPath>
						<g style="clip-path:url(#SVGID_54_);">
							
								<image style="overflow:visible;" width="201" height="205" xlink:href="A1007A34.png"  transform="matrix(0.24 0 0 0.24 13.56 40.44)">
							</image>
						</g>
					</g>
				</g>
			</g>
		</g>
		<g>
			<defs>
				<polygon id="SVGID_55_" points="18.74,82.47 28.01,82.58 54.57,45.61 45.48,45.55 				"/>
			</defs>
			<clipPath id="SVGID_56_">
				<use xlink:href="#SVGID_55_"  style="overflow:visible;"/>
			</clipPath>
			
				<linearGradient id="SVGID_57_" gradientUnits="userSpaceOnUse" x1="-150.8182" y1="485.0409" x2="-149.8182" y2="485.0409" gradientTransform="matrix(35.8251 0 0 -35.8251 5421.8213 17440.7109)">
				<stop  offset="0" style="stop-color:#9D9D9C"/>
				<stop  offset="6.230030e-08" style="stop-color:#9D9D9C"/>
				<stop  offset="0.996" style="stop-color:#575756"/>
				<stop  offset="1" style="stop-color:#706F6F"/>
			</linearGradient>
			<rect x="18.74" y="45.55" class="st18" width="35.82" height="37.04"/>
		</g>
		<g>
			<g class="st2">
				<g>
					<defs>
						<rect id="SVGID_58_" x="68.04" y="34.2" width="48.24" height="18.48"/>
					</defs>
					<clipPath id="SVGID_59_">
						<use xlink:href="#SVGID_58_"  style="overflow:visible;"/>
					</clipPath>
					<g class="st19">
						<defs>
							<rect id="SVGID_60_" x="68.04" y="34.2" width="48.24" height="18.48"/>
						</defs>
						<clipPath id="SVGID_61_">
							<use xlink:href="#SVGID_60_"  style="overflow:visible;"/>
						</clipPath>
						<g style="clip-path:url(#SVGID_61_);">
							
								<image style="overflow:visible;" width="201" height="77" xlink:href="4511A92A.png"  transform="matrix(0.24 0 0 0.24 68.04 34.2)">
							</image>
						</g>
					</g>
				</g>
			</g>
		</g>
		<g>
			<defs>
				<rect id="SVGID_62_" x="73.26" y="39.35" width="35.99" height="6.31"/>
			</defs>
			<clipPath id="SVGID_63_">
				<use xlink:href="#SVGID_62_"  style="overflow:visible;"/>
			</clipPath>
			
				<linearGradient id="SVGID_64_" gradientUnits="userSpaceOnUse" x1="-150.3551" y1="484.3222" x2="-149.3551" y2="484.3222" gradientTransform="matrix(33.8861 11.6849 11.6849 -33.8861 -489.621 18205.4727)">
				<stop  offset="0" style="stop-color:#9D9D9C"/>
				<stop  offset="6.230030e-08" style="stop-color:#9D9D9C"/>
				<stop  offset="0.996" style="stop-color:#575756"/>
				<stop  offset="1" style="stop-color:#706F6F"/>
			</linearGradient>
			<polygon class="st20" points="77.09,28.26 111.2,40.02 105.43,56.75 71.32,44.99 			"/>
		</g>
		<g>
			<g class="st2">
				<g>
					<defs>
						<rect id="SVGID_65_" x="68.28" y="77.4" width="48.24" height="18.48"/>
					</defs>
					<clipPath id="SVGID_66_">
						<use xlink:href="#SVGID_65_"  style="overflow:visible;"/>
					</clipPath>
					<g class="st21">
						<defs>
							<rect id="SVGID_67_" x="68.28" y="77.4" width="48.24" height="18.48"/>
						</defs>
						<clipPath id="SVGID_68_">
							<use xlink:href="#SVGID_67_"  style="overflow:visible;"/>
						</clipPath>
						<g style="clip-path:url(#SVGID_68_);">
							
								<image style="overflow:visible;" width="201" height="77" xlink:href="4511A92D.png"  transform="matrix(0.24 0 0 0.24 68.28 77.4)">
							</image>
						</g>
					</g>
				</g>
			</g>
		</g>
		<g>
			<defs>
				<rect id="SVGID_69_" x="73.35" y="82.54" width="35.99" height="6.31"/>
			</defs>
			<clipPath id="SVGID_70_">
				<use xlink:href="#SVGID_69_"  style="overflow:visible;"/>
			</clipPath>
			
				<linearGradient id="SVGID_71_" gradientUnits="userSpaceOnUse" x1="-150.8074" y1="485.0455" x2="-149.8074" y2="485.0455" gradientTransform="matrix(35.9894 0 0 -35.9894 5500.8154 17542.1895)">
				<stop  offset="0" style="stop-color:#9D9D9C"/>
				<stop  offset="6.230030e-08" style="stop-color:#9D9D9C"/>
				<stop  offset="0.996" style="stop-color:#575756"/>
				<stop  offset="1" style="stop-color:#706F6F"/>
			</linearGradient>
			<rect x="73.35" y="82.54" class="st22" width="35.99" height="6.31"/>
		</g>
		<g>
			<g class="st2">
				<g>
					<defs>
						<rect id="SVGID_72_" width="129.12" height="129.12"/>
					</defs>
					<clipPath id="SVGID_73_">
						<use xlink:href="#SVGID_72_"  style="overflow:visible;"/>
					</clipPath>
					<g class="st23">
						<defs>
							<rect id="SVGID_74_" width="129.12" height="129.12"/>
						</defs>
						<clipPath id="SVGID_75_">
							<use xlink:href="#SVGID_74_"  style="overflow:visible;"/>
						</clipPath>
						<g style="clip-path:url(#SVGID_75_);">
							
								<image style="overflow:visible;" width="538" height="538" xlink:href="4511A92E.png"  transform="matrix(0.24 0 0 0.24 0 0)">
							</image>
						</g>
					</g>
				</g>
			</g>
			<path class="st24" d="M64,5.02c32.55,0,59.04,26.49,59.04,59.04S96.55,123.11,64,123.11S4.96,96.62,4.96,64.07
				S31.44,5.02,64,5.02 M64,2.62c-33.88,0-61.44,27.56-61.44,61.44c0,33.88,27.56,61.44,61.44,61.44
				c33.88,0,61.44-27.56,61.44-61.44C125.44,30.19,97.88,2.62,64,2.62"/>
			<g class="st2">
				<g>
					<defs>
						<rect id="SVGID_76_" x="4.8" y="4.8" width="119.52" height="119.52"/>
					</defs>
					<clipPath id="SVGID_77_">
						<use xlink:href="#SVGID_76_"  style="overflow:visible;"/>
					</clipPath>
					<g class="st25">
						<defs>
							<rect id="SVGID_78_" x="4.8" y="4.8" width="119.52" height="119.52"/>
						</defs>
						<clipPath id="SVGID_79_">
							<use xlink:href="#SVGID_78_"  style="overflow:visible;"/>
						</clipPath>
						<g style="clip-path:url(#SVGID_79_);">
							
								<image style="overflow:visible;" width="498" height="498" xlink:href="4511A92C.png"  transform="matrix(0.24 0 0 0.24 4.8 4.8)">
							</image>
						</g>
					</g>
				</g>
			</g>
			<path class="st24" d="M64,9.83c29.9,0,54.23,24.33,54.23,54.23S93.9,118.3,64,118.3c-29.91,0-54.24-24.33-54.24-54.24
				S34.09,9.83,64,9.83 M64,7.43c-31.28,0-56.64,25.36-56.64,56.64S32.72,120.7,64,120.7s56.63-25.36,56.63-56.64
				S95.28,7.43,64,7.43"/>
			<polygon class="st26" points="18.74,82.47 19.87,80.91 28.09,82.47 			"/>
			<polygon class="st26" points="73.35,82.53 74.48,80.98 82.7,82.53 			"/>
			<polygon class="st27" points="45.48,45.55 54.65,45.6 53.46,47.16 			"/>
			<polygon class="st27" points="100.11,45.66 109.25,45.66 108.1,47.21 			"/>
			<rect x="60.91" y="32.6" class="st27" width="6.18" height="1.2"/>
			<rect x="60.91" y="93.75" class="st28" width="6.18" height="1.2"/>
		</g>
	</g>
	<g>
	</g>
	<g>
	</g>
	<g>
	</g>
	<g>
	</g>
	<g>
	</g>
	<g>
	</g>
</g>
</svg>
